<svg width="19" height="20" viewBox="0 0 19 20" fill="none" xmlns="http://www.w3.org/2000/svg">
<path d="M18.052 0.661133H0.991283C0.580991 0.661133 0.249512 0.992612 0.249512 1.4029V18.4636C0.249512 18.8739 0.580991 19.2054 0.991283 19.2054H18.052C18.4623 19.2054 18.7938 18.8739 18.7938 18.4636V1.4029C18.7938 0.992612 18.4623 0.661133 18.052 0.661133ZM15.9102 6.07374H14.4289C13.2676 6.07374 13.0427 6.62543 13.0427 7.43675V9.22395H15.8151L15.4535 12.0218H13.0427V19.2054H10.1522V12.0241H7.73444V9.22395H10.1522V7.1609C10.1522 4.76637 11.6148 3.46132 13.7521 3.46132C14.7766 3.46132 15.6552 3.53781 15.9125 3.57258V6.07374H15.9102Z" fill="#D3A265"/>
</svg>
