<svg width="20" height="20" viewBox="0 0 20 20" fill="none" xmlns="http://www.w3.org/2000/svg">
<path d="M18.6721 0.661133H1.6114C1.20111 0.661133 0.869629 0.992612 0.869629 1.4029V18.4636C0.869629 18.8739 1.20111 19.2054 1.6114 19.2054H18.6721C19.0824 19.2054 19.4139 18.8739 19.4139 18.4636V1.4029C19.4139 0.992612 19.0824 0.661133 18.6721 0.661133ZM6.37032 16.4632H3.61882V7.61292H6.37032V16.4632ZM4.99573 6.4029C4.68031 6.4029 4.37197 6.30937 4.1097 6.13413C3.84744 5.95889 3.64303 5.70982 3.52232 5.4184C3.40161 5.12699 3.37003 4.80633 3.43157 4.49696C3.4931 4.1876 3.64499 3.90343 3.86803 3.6804C4.09107 3.45736 4.37524 3.30547 4.6846 3.24393C4.99396 3.1824 5.31462 3.21398 5.60604 3.33469C5.89745 3.45539 6.14652 3.6598 6.32176 3.92207C6.497 4.18433 6.59054 4.49267 6.59054 4.8081C6.58822 5.68895 5.87427 6.4029 4.99573 6.4029ZM16.6717 16.4632H13.9225V12.1586C13.9225 11.1317 13.9039 9.81273 12.4923 9.81273C11.062 9.81273 10.8418 10.93 10.8418 12.0844V16.4632H8.09494V7.61292H10.7329V8.82293H10.77C11.1362 8.12752 12.0333 7.3927 13.3731 7.3927C16.1594 7.3927 16.6717 9.22627 16.6717 11.6092V16.4632Z" fill="#D3A265"/>
</svg>
