<svg width="20" height="20" viewBox="0 0 20 20" fill="none" xmlns="http://www.w3.org/2000/svg">
<path d="M0.490234 0.661133V19.2054H19.0345V0.661133H0.490234ZM15.3257 7.15163V7.49933C15.3257 11.3241 12.4281 15.6125 7.21253 15.6125C5.58991 15.6125 4.08319 15.1488 2.80827 14.3375H3.50368C4.8945 14.3375 6.05352 13.8739 7.09663 13.0626C5.82171 13.0626 4.7786 12.2513 4.43089 11.0923H5.0104C5.24221 11.0923 5.47401 11.0923 5.70581 10.9764C4.43089 10.7446 3.38778 9.58557 3.38778 8.19474C3.73548 8.42655 4.19909 8.54245 4.6627 8.54245C3.85138 8.07884 3.38778 7.15163 3.38778 6.22442C3.38778 5.64491 3.50368 5.1813 3.73548 4.83359C5.1263 6.57212 7.32844 7.61524 9.64647 7.73114C9.64647 7.49933 9.53057 7.26753 9.53057 7.03573C9.53057 5.4131 10.8055 4.13818 12.4281 4.13818C13.2394 4.13818 13.9348 4.48589 14.5143 5.0654C15.2098 4.9495 15.7893 4.71769 16.3688 4.36999C16.137 5.0654 15.6734 5.64491 15.0939 5.99261C15.6734 5.87671 16.2529 5.76081 16.7165 5.52901C16.3688 6.22442 15.9052 6.68802 15.3257 7.15163Z" fill="#D3A265"/>
</svg>
