<svg width="1440" height="1024" viewBox="0 0 1440 1024" fill="none" xmlns="http://www.w3.org/2000/svg">
    <path d="M1351 -13V1035" stroke="black" stroke-width="0.75" stroke-miterlimit="10"/>
    <path d="M1561.94 1181.72V585.395C1561.94 491.14 1485.47 414.647 1391.24 414.647C1297.01 414.647 1220.54 491.14 1220.54 585.395V1181.72H1561.94Z" stroke="black" stroke-width="0.75" stroke-miterlimit="10"/>
    <path d="M1618.51 399.708C1753.18 265.004 1753.18 46.6065 1618.51 -88.0972C1483.84 -222.801 1265.5 -222.801 1130.84 -88.0973C996.169 46.6065 996.169 265.004 1130.84 399.708C1265.5 534.412 1483.84 534.412 1618.51 399.708Z" stroke="black" stroke-width="0.75" stroke-miterlimit="10"/>
    <path d="M228 4L228 1024" stroke="black" stroke-width="0.75" stroke-miterlimit="10"/>
    <path d="M9.9341 651.145C189.514 651.145 335.011 505.608 335.011 325.979V-69.0908H-315V325.979C-315 505.608 -169.503 651.145 9.9341 651.145Z" stroke="black" stroke-width="0.75" stroke-miterlimit="10"/>
    <path d="M1219.6 745.9L1219.3 743L1219 745.9C1218.2 752.8 1212.9 758.3 1206 759.4C1212.9 760.5 1218.2 766 1219 772.9L1219.3 775.8L1219.6 772.9C1220.4 766 1225.7 760.5 1232.6 759.4C1225.8 758.4 1220.5 752.8 1219.6 745.9Z" fill="black"/>
    <path d="M292.1 316.8L291 308L290 316.8L283 317.9L290 319.1L291 327.9L292.1 319.1L299.1 317.9L292.1 316.8Z" fill="white"/>
    <path d="M423.1 616.8L422 608L421 616.8L414 617.9L421 619.1L422 627.9L423.1 619.1L430.1 617.9L423.1 616.8Z" fill="white"/>
    <path d="M1242.1 144.8L1241 136L1240 144.8L1233 145.9L1240 147.1L1241 155.9L1242.1 147.1L1249.1 145.9L1242.1 144.8Z" fill="white"/>
    <path d="M716.1 90.8L715 82L714 90.8L707 91.9L714 93.1L715 101.9L716.1 93.1L723.1 91.9L716.1 90.8Z" fill="white"/>
    <path d="M1049.2 544.8L1048.1 536L1047 544.8L1040 546L1047 547.1L1048.1 555.9L1049.2 547.1L1056.2 546L1049.2 544.8Z" fill="white"/>
    <path d="M237.1 831.3L257.4 828.1L236.9 829.5L255.9 821.7L236.3 827.8L253 815.8L235.3 826.3L248.8 810.7L234 825.1L243.5 806.8L232.4 824.2L237.5 804.2L230.7 823.6L231 803L228.9 823.5L224.4 803.4L227.1 823.8L218.1 805.3L225.4 824.5L212.4 808.5L224 825.6L207.6 813L222.8 827L204 818.5L222 828.6L201.8 824.7L221.6 830.4L201 831.2L221.6 832.2L201.7 837.8L222 833.9L204 843.9L222.8 835.6L207.6 849.4L223.9 836.9L212.3 854L225.4 838L218 857.3L227 838.7L224.3 859.2L228.8 839.1L230.9 859.6L230.6 839L237.3 858.4L232.4 838.4L243.4 855.8L233.9 837.5L248.7 851.9L235.2 836.3L252.9 846.9L236.2 834.8L255.9 841L236.9 833.1L257.4 834.6L237.1 831.3Z" fill="black"/>
    <path d="M334.6 143.9L334.3 141L334 143.9C333.2 150.8 327.9 156.3 321 157.4C327.9 158.5 333.2 164 334 170.9L334.3 173.8L334.6 170.9C335.4 164 340.7 158.5 347.6 157.4C340.8 156.3 335.5 150.8 334.6 143.9Z" fill="black"/>
    <path d="M249.2 424.6L238.9 424.1L230.5 423.7L231.8 422L234.3 418.7L231.1 421.3L229.5 422.7L229.1 414.3L228.6 404L228.1 414.3L227.7 422.7L226 421.4L222.7 418.9L225.3 422.1L226.7 423.7L218.3 424.1L208 424.6L218.3 425L226.8 425.4L225.4 427.2L222.9 430.4L226.1 427.8L227.7 426.5L228.1 434.9L228.6 445.2L229.1 434.9L229.5 426.4L231.2 427.8L234.4 430.3L231.8 427.1L230.5 425.4L238.9 425L249.2 424.6Z" fill="black"/>
    <path d="M1056.2 219.6L1045.9 219.2L1037.4 218.8L1038.8 217L1041.3 213.8L1038.1 216.4L1036.4 217.7L1036 209.3L1035.6 199L1035.1 209.3L1034.7 217.8L1032.9 216.5L1029.6 214L1032.3 217.2L1033.6 218.8L1025.3 219.2L1015 219.6L1025.3 220.1L1033.7 220.5L1032.4 222.2L1029.9 225.5L1033.1 222.9L1034.7 221.5L1035.1 229.9L1035.6 240.2L1036 229.9L1036.4 221.5L1038.1 222.8L1041.4 225.4L1038.8 222.2L1037.5 220.5L1045.9 220.1L1056.2 219.6Z" fill="black"/>
    <path d="M1073.5 831V834.6" stroke="black" stroke-width="0.75" stroke-miterlimit="10"/>
    <path d="M1073.5 838.3V842" stroke="black" stroke-width="0.75" stroke-miterlimit="10"/>
    <path d="M1079 836.5H1075.4" stroke="black" stroke-width="0.75" stroke-miterlimit="10"/>
    <path d="M1071.7 836.5H1068" stroke="black" stroke-width="0.75" stroke-miterlimit="10"/>
    <path d="M442.5 906V909.6" stroke="black" stroke-width="0.75" stroke-miterlimit="10"/>
    <path d="M442.5 913.3V917" stroke="black" stroke-width="0.75" stroke-miterlimit="10"/>
    <path d="M448 911.5H444.4" stroke="black" stroke-width="0.75" stroke-miterlimit="10"/>
    <path d="M440.7 911.5H437" stroke="black" stroke-width="0.75" stroke-miterlimit="10"/>
    <path d="M100.5 81V84.6" stroke="black" stroke-width="0.75" stroke-miterlimit="10"/>
    <path d="M100.5 88.3V92" stroke="black" stroke-width="0.75" stroke-miterlimit="10"/>
    <path d="M106 86.5H102.4" stroke="black" stroke-width="0.75" stroke-miterlimit="10"/>
    <path d="M98.7 86.5H95" stroke="black" stroke-width="0.75" stroke-miterlimit="10"/>
</svg>
