<?xml version="1.0" encoding="utf-8"?>
<svg width="17" height="15" viewBox="0 0 576 512" xmlns="http://www.w3.org/2000/svg">
  <path d="M 287.875 85.463 C 223.34 85.463 170.288 112.54 129.607 147.392 C 91.499 180.14 65.171 219.017 51.71 246.46 C 65.171 273.902 91.499 312.78 129.508 345.528 C 170.288 380.381 223.34 407.458 287.875 407.458 C 352.409 407.458 405.462 380.381 446.141 345.528 C 484.249 312.78 510.578 273.902 524.039 246.46 C 510.578 219.017 484.249 180.14 446.241 147.392 C 405.462 112.54 352.409 85.463 287.875 85.463 Z M 97.24 115.283 C 143.859 75.217 207.899 41.554 287.875 41.554 C 367.85 41.554 431.89 75.217 478.509 115.283 C 524.83 155.075 555.811 202.551 570.559 235.208 C 573.825 242.435 573.825 250.485 570.559 257.711 C 555.811 290.369 524.83 337.936 478.509 377.636 C 431.89 417.703 367.85 451.366 287.875 451.366 C 207.899 451.366 143.859 417.703 97.24 377.636 C 50.919 337.936 19.938 290.369 5.288 257.711 C 2.022 250.485 2.022 242.435 5.288 235.208 C 19.938 202.551 50.919 154.984 97.24 115.283 Z M 287.875 319.64 C 331.623 319.64 367.058 286.893 367.058 246.46 C 367.058 206.028 331.623 173.279 287.875 173.279 C 287.181 173.279 286.588 173.279 285.895 173.279 C 287.181 177.945 287.875 182.884 287.875 187.916 C 287.875 220.207 259.468 246.46 224.528 246.46 C 219.084 246.46 213.739 245.82 208.691 244.63 C 208.691 245.271 208.691 245.82 208.691 246.46 C 208.691 286.893 244.126 319.64 287.875 319.64 Z M 287.875 129.371 C 385.403 129.371 446.359 226.945 397.594 305.005 C 374.962 341.232 333.137 363.55 287.875 363.55 C 190.346 363.55 129.39 265.975 178.155 187.916 C 200.787 151.688 242.612 129.371 287.875 129.371 Z" style=""/>
</svg>
