<svg width="18" height="18" viewBox="0 0 18 18" fill="none" xmlns="http://www.w3.org/2000/svg">
<path d="M0.950958 12.0724L9.49117 3.53223L14.4662 8.50721L5.92595 17.0474L0.950958 12.0724Z" fill="#FFB61D"/>
<path d="M0.439852 17.9998H0.49854L5.15964 17.5014L0.49854 12.8403L0 17.5307C0 17.6773 0.0292414 17.7945 0.117173 17.8824C0.205307 17.9706 0.322475 17.9998 0.439852 17.9998Z" fill="#FFB61D"/>
<path d="M17.6481 5.3355C17.8827 5.10095 17.9998 4.80793 17.9998 4.48546C17.9998 4.16299 17.8827 3.84052 17.6481 3.63542L14.3941 0.351722C14.1595 0.117173 13.8665 0 13.544 0C13.2216 0 12.8991 0.117173 12.694 0.351722L10.1436 2.90211L15.1272 7.88568L17.6481 5.3355Z" fill="#FFB61D"/>
</svg>
