<svg width="35" height="35" viewBox="0 0 35 35" fill="none" xmlns="http://www.w3.org/2000/svg">
<path d="M35 35V17.5H23.4387L34.8836 35H35Z" fill="white"/>
<path d="M0 35H34.8836L0 34.9665V35Z" fill="#3B79C3"/>
<path d="M0 17.5V34.9665L11.6279 17.5H0Z" fill="white"/>
<path d="M23.4387 17.5H34.9834V0H0V17.5H11.6279L17.5832 8.54885L23.4387 17.5ZM8.35076 12.0019C6.55418 12.0019 5.0903 10.5268 5.0903 8.71647C5.0903 6.90613 6.55418 5.43103 8.35076 5.43103C10.1473 5.43103 11.6112 6.90613 11.6112 8.71647C11.6112 10.5268 10.1473 12.0019 8.35076 12.0019Z" fill="#FFB61D"/>
<path d="M8.91674 11.9521C10.6901 11.6373 11.8744 9.93346 11.5619 8.14654C11.2495 6.35962 9.55869 5.16625 7.78536 5.48106C6.01203 5.79588 4.82773 7.49967 5.14015 9.28659C5.45257 11.0735 7.14341 12.2669 8.91674 11.9521Z" fill="#212121"/>
<path d="M0 34.9665L34.8836 35L23.4387 17.5H11.6279L0 34.9665Z" fill="#FFB61D"/>
<path d="M17.5833 8.54883L11.6279 17.5H23.4388L17.5833 8.54883Z" fill="#212121"/>
</svg>
